<svg xmlns="http://www.w3.org/2000/svg" xmlns:xlink="http://www.w3.org/1999/xlink" width="500" zoomAndPan="magnify" viewBox="0 0 375 374.999991" height="500" preserveAspectRatio="xMidYMid meet" version="1.0"><defs><clipPath id="4790e2ed12"><path d="M 36.75 48.785156 L 167 48.785156 L 167 326.285156 L 36.75 326.285156 Z M 36.75 48.785156 " clip-rule="nonzero"/></clipPath><clipPath id="aeddbd4c7c"><path d="M 182 48.785156 L 310.0625 48.785156 L 310.0625 326.285156 L 182 326.285156 Z M 182 48.785156 " clip-rule="nonzero"/></clipPath><clipPath id="98c992818a"><path d="M 43 48.785156 L 173 48.785156 L 173 326.285156 L 43 326.285156 Z M 43 48.785156 " clip-rule="nonzero"/></clipPath><clipPath id="d37e62fe10"><path d="M 188 48.785156 L 316.304688 48.785156 L 316.304688 326.285156 L 188 326.285156 Z M 188 48.785156 " clip-rule="nonzero"/></clipPath></defs><g clip-path="url(#4790e2ed12)"><path fill="#1ed760" d="M 36.773438 187.484375 C 36.773438 249.378906 77.214844 301.824219 133.113281 319.84375 C 143.640625 323.238281 154.714844 325.410156 166.175781 326.195312 L 166.175781 291.402344 C 154.488281 290.332031 143.363281 287.335938 133.113281 282.734375 C 101.585938 268.578125 78.363281 239.234375 72.757812 204.019531 L 146.355469 204.019531 L 146.355469 170.953125 L 72.757812 170.953125 C 78.363281 135.738281 101.585938 106.394531 133.113281 92.238281 C 143.363281 87.636719 154.488281 84.640625 166.175781 83.570312 L 166.175781 48.777344 C 154.714844 49.5625 143.640625 51.734375 133.113281 55.128906 C 77.214844 73.148438 36.773438 125.59375 36.773438 187.484375 Z M 36.773438 187.484375 " fill-opacity="1" fill-rule="nonzero"/></g><g clip-path="url(#aeddbd4c7c)"><path fill="#1ed760" d="M 264.265625 84.242188 L 241.605469 110.511719 C 241.632812 110.535156 241.660156 110.5625 241.6875 110.585938 C 241.925781 110.808594 242.160156 111.027344 242.398438 111.246094 C 242.660156 111.492188 242.921875 111.738281 243.179688 111.988281 C 244.230469 112.988281 245.257812 114.011719 246.265625 115.054688 C 246.507812 115.304688 246.75 115.558594 246.988281 115.8125 C 247.257812 116.09375 247.527344 116.382812 247.792969 116.671875 C 248.011719 116.910156 248.230469 117.148438 248.449219 117.386719 C 248.457031 117.398438 248.464844 117.40625 248.476562 117.417969 C 248.710938 117.675781 248.945312 117.9375 249.175781 118.199219 C 249.242188 118.273438 249.308594 118.34375 249.371094 118.417969 C 249.777344 118.878906 250.183594 119.34375 250.582031 119.816406 C 251.140625 120.46875 251.6875 121.125 252.226562 121.792969 C 252.492188 122.117188 252.75 122.441406 253.011719 122.769531 C 253.246094 123.066406 253.480469 123.367188 253.714844 123.667969 C 254.011719 124.050781 254.304688 124.4375 254.597656 124.828125 C 254.828125 125.128906 255.054688 125.4375 255.28125 125.742188 C 255.28125 125.746094 255.289062 125.753906 255.289062 125.757812 C 255.503906 126.046875 255.714844 126.339844 255.925781 126.632812 C 256.082031 126.851562 256.238281 127.070312 256.394531 127.292969 C 256.539062 127.492188 256.679688 127.691406 256.816406 127.890625 C 257.140625 128.355469 257.464844 128.824219 257.78125 129.296875 C 258.082031 129.75 258.382812 130.199219 258.675781 130.65625 C 258.804688 130.847656 258.929688 131.039062 259.050781 131.234375 C 259.222656 131.496094 259.386719 131.757812 259.554688 132.023438 C 259.71875 132.289062 259.886719 132.554688 260.046875 132.816406 C 260.304688 133.230469 260.558594 133.652344 260.808594 134.070312 C 260.953125 134.316406 261.097656 134.5625 261.242188 134.808594 C 261.40625 135.082031 261.5625 135.355469 261.722656 135.628906 C 261.835938 135.832031 261.949219 136.03125 262.0625 136.234375 C 262.148438 136.386719 262.238281 136.542969 262.324219 136.695312 C 262.5 137.011719 262.675781 137.328125 262.847656 137.648438 C 263.136719 138.179688 263.425781 138.714844 263.703125 139.253906 C 263.800781 139.433594 263.894531 139.613281 263.984375 139.792969 C 264.195312 140.203125 264.40625 140.617188 264.613281 141.03125 C 264.695312 141.191406 264.773438 141.355469 264.851562 141.519531 C 265.007812 141.839844 265.164062 142.164062 265.320312 142.484375 C 265.496094 142.851562 265.671875 143.222656 265.84375 143.59375 C 265.980469 143.890625 266.117188 144.183594 266.25 144.480469 C 266.355469 144.71875 266.464844 144.953125 266.570312 145.191406 C 266.914062 145.972656 267.253906 146.757812 267.582031 147.546875 C 267.683594 147.800781 267.789062 148.058594 267.890625 148.308594 C 268.511719 149.832031 269.09375 151.375 269.640625 152.9375 C 269.742188 153.234375 269.847656 153.53125 269.949219 153.832031 C 270.171875 154.472656 270.382812 155.121094 270.585938 155.769531 C 270.691406 156.09375 270.792969 156.417969 270.894531 156.746094 C 271.019531 157.148438 271.140625 157.550781 271.257812 157.957031 C 271.304688 158.117188 271.355469 158.277344 271.398438 158.4375 C 271.449219 158.609375 271.496094 158.773438 271.542969 158.941406 C 271.628906 159.238281 271.710938 159.539062 271.792969 159.835938 C 271.839844 160.007812 271.886719 160.179688 271.933594 160.351562 C 271.984375 160.542969 272.035156 160.730469 272.085938 160.917969 C 272.125 161.078125 272.167969 161.238281 272.207031 161.398438 C 272.355469 161.976562 272.5 162.554688 272.636719 163.136719 C 272.878906 164.128906 273.101562 165.132812 273.308594 166.136719 C 273.351562 166.332031 273.390625 166.535156 273.429688 166.730469 C 273.492188 167.03125 273.550781 167.328125 273.609375 167.628906 C 273.664062 167.929688 273.722656 168.234375 273.777344 168.535156 C 273.925781 169.339844 274.066406 170.144531 274.191406 170.953125 L 215.65625 170.953125 L 215.65625 55.726562 C 205.144531 52.175781 194.066406 49.847656 182.59375 48.914062 L 182.59375 326.0625 C 194.066406 325.125 205.144531 322.796875 215.65625 319.246094 L 215.65625 204.019531 L 274.191406 204.019531 C 270.285156 228.597656 257.792969 250.3125 239.886719 266.003906 L 264.449219 290.566406 C 292.539062 265.128906 310.179688 228.367188 310.179688 187.484375 C 310.179688 146.519531 292.460938 109.6875 264.265625 84.242188 Z M 264.265625 84.242188 " fill-opacity="1" fill-rule="nonzero"/></g><g clip-path="url(#98c992818a)"><path fill="#ffffff" d="M 43.011719 187.484375 C 43.011719 249.378906 83.453125 301.824219 139.351562 319.84375 C 149.878906 323.238281 160.957031 325.410156 172.414062 326.195312 L 172.414062 291.402344 C 160.730469 290.332031 149.601562 287.335938 139.351562 282.734375 C 107.828125 268.578125 84.605469 239.234375 79 204.019531 L 152.597656 204.019531 L 152.597656 170.953125 L 79 170.953125 C 84.605469 135.738281 107.828125 106.394531 139.351562 92.238281 C 149.601562 87.636719 160.730469 84.640625 172.414062 83.570312 L 172.414062 48.777344 C 160.957031 49.5625 149.878906 51.734375 139.351562 55.128906 C 83.453125 73.148438 43.011719 125.59375 43.011719 187.484375 Z M 43.011719 187.484375 " fill-opacity="1" fill-rule="nonzero"/></g><g clip-path="url(#d37e62fe10)"><path fill="#ffffff" d="M 270.507812 84.242188 L 247.84375 110.511719 C 247.871094 110.535156 247.902344 110.5625 247.925781 110.585938 C 248.164062 110.808594 248.402344 111.027344 248.636719 111.246094 C 248.902344 111.492188 249.160156 111.738281 249.421875 111.988281 C 250.46875 112.988281 251.5 114.011719 252.503906 115.054688 C 252.746094 115.304688 252.988281 115.558594 253.226562 115.8125 C 253.496094 116.09375 253.765625 116.382812 254.03125 116.671875 C 254.253906 116.910156 254.472656 117.148438 254.6875 117.386719 C 254.699219 117.398438 254.707031 117.40625 254.714844 117.417969 C 254.953125 117.675781 255.183594 117.9375 255.417969 118.199219 C 255.480469 118.273438 255.546875 118.34375 255.609375 118.417969 C 256.019531 118.878906 256.421875 119.34375 256.820312 119.816406 C 257.382812 120.46875 257.929688 121.125 258.46875 121.792969 C 258.730469 122.117188 258.992188 122.441406 259.25 122.769531 C 259.484375 123.066406 259.722656 123.367188 259.953125 123.667969 C 260.25 124.050781 260.546875 124.4375 260.835938 124.828125 C 261.066406 125.128906 261.292969 125.4375 261.519531 125.742188 C 261.523438 125.746094 261.527344 125.753906 261.53125 125.757812 C 261.746094 126.046875 261.957031 126.339844 262.167969 126.632812 C 262.324219 126.851562 262.480469 127.070312 262.636719 127.292969 C 262.777344 127.492188 262.917969 127.691406 263.054688 127.890625 C 263.382812 128.355469 263.703125 128.824219 264.019531 129.296875 C 264.324219 129.75 264.621094 130.199219 264.917969 130.65625 C 265.042969 130.847656 265.167969 131.039062 265.292969 131.234375 C 265.460938 131.496094 265.628906 131.757812 265.792969 132.023438 C 265.960938 132.289062 266.125 132.554688 266.289062 132.816406 C 266.542969 133.230469 266.796875 133.652344 267.046875 134.070312 C 267.195312 134.316406 267.339844 134.5625 267.484375 134.808594 C 267.644531 135.082031 267.804688 135.355469 267.960938 135.628906 C 268.078125 135.832031 268.191406 136.03125 268.304688 136.234375 C 268.390625 136.386719 268.476562 136.542969 268.5625 136.695312 C 268.738281 137.011719 268.914062 137.328125 269.089844 137.648438 C 269.378906 138.179688 269.664062 138.714844 269.945312 139.253906 C 270.039062 139.433594 270.132812 139.613281 270.222656 139.792969 C 270.4375 140.203125 270.644531 140.617188 270.851562 141.03125 C 270.933594 141.191406 271.011719 141.355469 271.09375 141.519531 C 271.25 141.839844 271.40625 142.164062 271.558594 142.484375 C 271.734375 142.851562 271.910156 143.222656 272.082031 143.59375 C 272.21875 143.890625 272.359375 144.183594 272.492188 144.480469 C 272.597656 144.71875 272.703125 144.953125 272.8125 145.191406 C 273.15625 145.972656 273.492188 146.757812 273.820312 147.546875 C 273.925781 147.800781 274.03125 148.058594 274.132812 148.308594 C 274.75 149.832031 275.332031 151.375 275.878906 152.9375 C 275.984375 153.234375 276.085938 153.53125 276.1875 153.832031 C 276.410156 154.472656 276.621094 155.121094 276.828125 155.769531 C 276.929688 156.09375 277.03125 156.417969 277.132812 156.746094 C 277.257812 157.148438 277.378906 157.550781 277.5 157.957031 C 277.546875 158.117188 277.59375 158.277344 277.640625 158.4375 C 277.6875 158.609375 277.734375 158.773438 277.785156 158.941406 C 277.867188 159.238281 277.949219 159.539062 278.03125 159.835938 C 278.082031 160.007812 278.125 160.179688 278.171875 160.351562 C 278.226562 160.542969 278.277344 160.730469 278.324219 160.917969 C 278.363281 161.078125 278.40625 161.238281 278.445312 161.398438 C 278.597656 161.976562 278.742188 162.554688 278.878906 163.136719 C 279.117188 164.128906 279.339844 165.132812 279.546875 166.136719 C 279.59375 166.332031 279.628906 166.535156 279.671875 166.730469 C 279.730469 167.03125 279.789062 167.328125 279.847656 167.628906 C 279.90625 167.929688 279.964844 168.234375 280.019531 168.535156 C 280.164062 169.339844 280.304688 170.144531 280.433594 170.953125 L 221.898438 170.953125 L 221.898438 55.726562 C 211.386719 52.175781 200.304688 49.847656 188.835938 48.914062 L 188.835938 326.0625 C 200.304688 325.125 211.386719 322.796875 221.898438 319.246094 L 221.898438 204.019531 L 280.433594 204.019531 C 276.523438 228.597656 264.03125 250.3125 246.125 266.003906 L 270.691406 290.566406 C 298.777344 265.128906 316.421875 228.367188 316.421875 187.484375 C 316.421875 146.519531 298.699219 109.6875 270.507812 84.242188 Z M 270.507812 84.242188 " fill-opacity="1" fill-rule="nonzero"/></g></svg>